<svg width="40" height="40" viewBox="0 0 40 40" fill="none" xmlns="http://www.w3.org/2000/svg">
<path d="M20.0007 21.667C20.9211 21.667 21.6673 20.9208 21.6673 20.0003C21.6673 19.0799 20.9211 18.3337 20.0007 18.3337C19.0802 18.3337 18.334 19.0799 18.334 20.0003C18.334 20.9208 19.0802 21.667 20.0007 21.667Z" stroke="black" stroke-width="3" stroke-linecap="round" stroke-linejoin="round"/>
<path d="M20.0007 10.0003C20.9211 10.0003 21.6673 9.25413 21.6673 8.33366C21.6673 7.41318 20.9211 6.66699 20.0007 6.66699C19.0802 6.66699 18.334 7.41318 18.334 8.33366C18.334 9.25413 19.0802 10.0003 20.0007 10.0003Z" stroke="black" stroke-width="3" stroke-linecap="round" stroke-linejoin="round"/>
<path d="M20.0007 33.3337C20.9211 33.3337 21.6673 32.5875 21.6673 31.667C21.6673 30.7465 20.9211 30.0003 20.0007 30.0003C19.0802 30.0003 18.334 30.7465 18.334 31.667C18.334 32.5875 19.0802 33.3337 20.0007 33.3337Z" stroke="black" stroke-width="3" stroke-linecap="round" stroke-linejoin="round"/>
</svg>
