<svg width="512" height="512" viewBox="0 0 512 512" fill="none" xmlns="http://www.w3.org/2000/svg">
<rect width="512" height="512" fill="#EAEAEA"/>
<rect x="92.9727" y="163.176" width="128" height="128" rx="10" transform="rotate(-16 92.9727 163.176)" fill="#CCCCCC"/>
<rect x="268.393" y="93.7832" width="154" height="164" rx="10" transform="rotate(12 268.393 93.7832)" fill="#B2B2B2"/>
<rect x="265.312" y="89.039" width="162" height="172" rx="14" transform="rotate(12 265.312 89.039)" stroke="white" stroke-opacity="0.5" stroke-width="8"/>
<g clip-path="url(#clip0_516_162)">
<rect x="284.922" y="121.832" width="110" height="116" rx="10" transform="rotate(12 284.922 121.832)" fill="white"/>
<path d="M316.67 224.681L376.694 199.613L365.674 251.455L266.024 230.273L269.362 214.626L304.127 199.524L316.67 224.681Z" fill="#B2B2B2"/>
</g>
<rect x="286.462" y="124.204" width="106" height="112" rx="8" transform="rotate(12 286.462 124.204)" stroke="white" stroke-width="4"/>
<path d="M168.855 313.308V348.217H164.014L146.27 322.615H145.946V348.217H140.679V313.308H145.554L163.315 338.944H163.639V313.308H168.855ZM206.862 330.762C206.862 334.49 206.18 337.694 204.817 340.376C203.453 343.046 201.584 345.103 199.209 346.546C196.845 347.978 194.158 348.694 191.146 348.694C188.124 348.694 185.425 347.978 183.05 346.546C180.686 345.103 178.822 343.041 177.459 340.359C176.095 337.677 175.413 334.478 175.413 330.762C175.413 327.035 176.095 323.836 177.459 321.166C178.822 318.484 180.686 316.427 183.05 314.995C185.425 313.552 188.124 312.83 191.146 312.83C194.158 312.83 196.845 313.552 199.209 314.995C201.584 316.427 203.453 318.484 204.817 321.166C206.18 323.836 206.862 327.035 206.862 330.762ZM201.646 330.762C201.646 327.921 201.186 325.529 200.266 323.586C199.357 321.632 198.107 320.154 196.516 319.154C194.936 318.143 193.146 317.637 191.146 317.637C189.135 317.637 187.339 318.143 185.76 319.154C184.18 320.154 182.93 321.632 182.01 323.586C181.101 325.529 180.646 327.921 180.646 330.762C180.646 333.603 181.101 336.001 182.01 337.955C182.93 339.899 184.18 341.376 185.76 342.387C187.339 343.387 189.135 343.887 191.146 343.887C193.146 343.887 194.936 343.387 196.516 342.387C198.107 341.376 199.357 339.899 200.266 337.955C201.186 336.001 201.646 333.603 201.646 330.762ZM231.399 313.308V348.217H226.132V313.308H231.399ZM239.07 313.308H245.462L256.575 340.444H256.984L268.098 313.308H274.49V348.217H269.479V322.955H269.155L258.859 348.166H254.7L244.405 322.938H244.081V348.217H239.07V313.308ZM285.097 348.217H279.506L292.068 313.308H298.153L310.716 348.217H305.125L295.256 319.649H294.983L285.097 348.217ZM286.034 334.546H304.17V338.978H286.034V334.546ZM337.741 324.336C337.412 323.302 336.969 322.376 336.412 321.558C335.866 320.728 335.213 320.024 334.452 319.444C333.69 318.853 332.821 318.404 331.844 318.097C330.878 317.791 329.815 317.637 328.656 317.637C326.69 317.637 324.918 318.143 323.338 319.154C321.759 320.166 320.509 321.649 319.588 323.603C318.679 325.546 318.224 327.927 318.224 330.745C318.224 333.575 318.685 335.967 319.605 337.921C320.526 339.876 321.787 341.359 323.389 342.37C324.991 343.382 326.815 343.887 328.861 343.887C330.759 343.887 332.412 343.501 333.821 342.728C335.241 341.955 336.338 340.865 337.111 339.455C337.895 338.035 338.287 336.365 338.287 334.444L339.651 334.7H329.662V330.353H343.384V334.325C343.384 337.257 342.759 339.802 341.509 341.961C340.27 344.109 338.554 345.768 336.361 346.938C334.179 348.109 331.679 348.694 328.861 348.694C325.702 348.694 322.929 347.967 320.543 346.512C318.168 345.058 316.315 342.995 314.986 340.325C313.656 337.643 312.991 334.461 312.991 330.779C312.991 327.995 313.378 325.495 314.151 323.279C314.923 321.063 316.009 319.183 317.406 317.637C318.815 316.08 320.469 314.893 322.366 314.075C324.276 313.245 326.361 312.83 328.622 312.83C330.509 312.83 332.264 313.109 333.889 313.666C335.526 314.222 336.98 315.012 338.253 316.035C339.537 317.058 340.599 318.274 341.44 319.683C342.281 321.08 342.849 322.632 343.145 324.336H337.741ZM350.07 348.217V313.308H371.956V317.842H355.337V328.478H370.814V332.995H355.337V343.683H372.161V348.217H350.07ZM134.558 406.217H128.967L141.529 371.308H147.614L160.177 406.217H154.586L144.717 377.649H144.444L134.558 406.217ZM135.495 392.546H153.631V396.978H135.495V392.546ZM164.613 371.308L174.329 399.74H174.721L184.437 371.308H190.13L177.567 406.217H171.482L158.92 371.308H164.613ZM194.558 406.217H188.967L201.529 371.308H207.614L220.177 406.217H214.586L204.717 377.649H204.444L194.558 406.217ZM195.495 392.546H213.631V396.978H195.495V392.546ZM230.485 371.308V406.217H225.218V371.308H230.485ZM238.156 406.217V371.308H243.423V401.683H259.241V406.217H238.156ZM269.979 406.217H264.388L276.951 371.308H283.036L295.599 406.217H290.008L280.138 377.649H279.866L269.979 406.217ZM270.917 392.546H289.053V396.978H270.917V392.546ZM300.64 406.217V371.308H313.424C315.901 371.308 317.952 371.717 319.577 372.535C321.202 373.342 322.418 374.438 323.225 375.825C324.032 377.2 324.435 378.751 324.435 380.478C324.435 381.933 324.168 383.16 323.634 384.16C323.1 385.149 322.384 385.944 321.487 386.546C320.6 387.137 319.623 387.569 318.555 387.842V388.183C319.714 388.24 320.844 388.615 321.947 389.308C323.06 389.99 323.981 390.961 324.708 392.222C325.435 393.484 325.799 395.018 325.799 396.825C325.799 398.609 325.379 400.211 324.538 401.632C323.708 403.041 322.424 404.16 320.685 404.99C318.947 405.808 316.725 406.217 314.021 406.217H300.64ZM305.907 401.7H313.509C316.032 401.7 317.839 401.211 318.93 400.234C320.021 399.257 320.566 398.035 320.566 396.569C320.566 395.467 320.288 394.455 319.731 393.535C319.174 392.615 318.379 391.882 317.344 391.336C316.322 390.791 315.106 390.518 313.697 390.518H305.907V401.7ZM305.907 386.41H312.964C314.146 386.41 315.208 386.183 316.151 385.728C317.106 385.274 317.862 384.637 318.418 383.819C318.987 382.99 319.271 382.012 319.271 380.887C319.271 379.444 318.765 378.234 317.754 377.257C316.742 376.279 315.191 375.791 313.1 375.791H305.907V386.41ZM332.046 406.217V371.308H337.313V401.683H353.131V406.217H332.046ZM359.14 406.217V371.308H381.026V375.842H364.407V386.478H379.884V390.995H364.407V401.683H381.231V406.217H359.14Z" fill="#919191"/>
<defs>
<clipPath id="clip0_516_162">
<rect x="284.922" y="121.832" width="110" height="116" rx="10" transform="rotate(12 284.922 121.832)" fill="white"/>
</clipPath>
</defs>
</svg>
