<svg width="40" height="40" viewBox="0 0 40 40" fill="none" xmlns="http://www.w3.org/2000/svg">
<path d="M3.41602 3.41699H6.74935L11.1827 24.117C11.3453 24.8751 11.7671 25.5528 12.3755 26.0334C12.9839 26.5141 13.7409 26.7676 14.516 26.7503H30.816C31.5746 26.7491 32.3102 26.4891 32.9011 26.0134C33.492 25.5376 33.9029 24.8745 34.066 24.1337L36.816 11.7503H8.53268M14.9993 35.0003C14.9993 35.9208 14.2532 36.667 13.3327 36.667C12.4122 36.667 11.666 35.9208 11.666 35.0003C11.666 34.0799 12.4122 33.3337 13.3327 33.3337C14.2532 33.3337 14.9993 34.0799 14.9993 35.0003ZM33.3327 35.0003C33.3327 35.9208 32.5865 36.667 31.666 36.667C30.7455 36.667 29.9993 35.9208 29.9993 35.0003C29.9993 34.0799 30.7455 33.3337 31.666 33.3337C32.5865 33.3337 33.3327 34.0799 33.3327 35.0003Z" stroke="black" stroke-width="3" stroke-linecap="round" stroke-linejoin="round"/>
</svg>
