<?xml version="1.0" standalone="no"?>
<!DOCTYPE svg PUBLIC "-//W3C//DTD SVG 20010904//EN"
 "http://www.w3.org/TR/2001/REC-SVG-20010904/DTD/svg10.dtd">
<svg version="1.0" xmlns="http://www.w3.org/2000/svg"
 width="500.000000pt" height="500.000000pt" viewBox="0 0 500.000000 500.000000"
 preserveAspectRatio="xMidYMid meet">

<g transform="translate(0.000000,500.000000) scale(0.100000,-0.100000)"
fill="#000000" stroke="none">
<path d="M1442 4184 c-126 -27 -269 -98 -386 -191 -136 -108 -290 -364 -341
-567 -102 -404 -18 -787 257 -1173 233 -327 514 -603 1322 -1300 104 -90 197
-163 207 -163 10 0 72 46 137 102 66 57 181 156 256 222 1101 954 1429 1406
1429 1971 0 309 -88 578 -254 778 -185 222 -422 337 -695 337 -295 0 -549
-108 -782 -334 l-92 -89 -88 86 c-169 168 -350 268 -572 318 -102 22 -302 24
-398 3z"/>
</g>
</svg>
