<?xml version="1.0" standalone="no"?>
<!DOCTYPE svg PUBLIC "-//W3C//DTD SVG 20010904//EN"
 "http://www.w3.org/TR/2001/REC-SVG-20010904/DTD/svg10.dtd">
<svg version="1.0" xmlns="http://www.w3.org/2000/svg"
 width="612.000000pt" height="612.000000pt" viewBox="0 0 612.000000 612.000000"
 preserveAspectRatio="xMidYMid meet">

<g transform="translate(0.000000,612.000000) scale(0.100000,-0.100000)"
fill="#000000" stroke="none">
<path d="M1797 5134 c-419 -76 -758 -395 -906 -854 -55 -171 -66 -252 -66
-490 0 -189 3 -228 23 -318 64 -283 202 -560 421 -842 229 -295 635 -693 1266
-1240 105 -90 263 -229 352 -307 90 -79 168 -143 173 -143 14 0 688 585 995
864 760 690 1103 1152 1211 1636 48 217 54 397 18 620 -78 495 -389 894 -806
1036 -228 77 -537 69 -788 -21 -207 -75 -452 -242 -587 -400 l-40 -47 -79 82
c-169 177 -376 308 -598 379 -184 59 -415 77 -589 45z m388 -206 c322 -54 645
-286 825 -591 25 -42 47 -77 50 -77 3 0 31 42 62 93 272 446 786 678 1243 562
82 -21 226 -93 306 -153 105 -80 206 -202 283 -343 51 -94 112 -288 132 -420
20 -137 15 -351 -11 -474 -89 -424 -363 -819 -965 -1390 -177 -167 -967 -868
-1031 -914 -22 -16 9 -40 -419 333 -929 813 -1273 1183 -1478 1591 -212 423
-213 901 -3 1290 207 384 577 566 1006 493z"/>
</g>
</svg>
