<svg width="128" height="110" viewBox="0 0 128 110" fill="none" xmlns="http://www.w3.org/2000/svg">
<path d="M17.6411 36.3112V14.1335H13.6787V11.5557H23.9187C24.453 11.5557 24.9575 11.5409 25.4324 11.5112C25.9073 11.4816 26.3822 11.4668 26.8571 11.4668C30.686 11.4668 33.5057 11.9854 35.3163 13.0224C37.1565 14.0298 38.0766 15.7927 38.0766 18.3112C38.0766 20.0594 37.6314 21.4076 36.741 22.3557C35.8801 23.3038 34.7968 23.9705 33.4909 24.3557C35.3608 24.8298 36.741 25.6298 37.6314 26.7557C38.5514 27.852 39.0116 29.3779 39.0116 31.3335C39.0116 32.726 38.7741 33.9112 38.2992 34.889C37.854 35.8668 37.1713 36.6668 36.2512 37.289C35.3311 37.8816 34.1587 38.3112 32.734 38.5779C31.3093 38.8446 29.6471 38.9779 27.7476 38.9779C27.2429 38.9779 26.6939 38.9631 26.1003 38.9335C25.5066 38.9038 24.8685 38.889 24.1858 38.889H13.6787V36.3112H17.6411ZM25.1208 25.5557V36.6224C25.8628 36.7112 26.7384 36.7557 27.7476 36.7557C28.074 36.7557 28.3709 36.7557 28.638 36.7557C28.9348 36.726 29.1871 36.6965 29.3949 36.6668C29.6323 36.6371 29.8401 36.5927 30.0182 36.5335C30.1368 36.089 30.2556 35.6001 30.3744 35.0668C30.4634 34.5927 30.5375 34.0446 30.597 33.4224C30.686 32.7705 30.7305 32.0298 30.7305 31.2001C30.7305 30.4298 30.6711 29.7038 30.5525 29.0224C30.4634 28.3112 30.3594 27.7038 30.2408 27.2001C30.122 26.6076 29.9737 26.0594 29.7956 25.5557H25.1208ZM26.8571 13.7335C26.2338 13.7335 25.6551 13.7779 25.1208 13.8668V23.2446H29.7065C29.7659 22.8298 29.8252 22.3557 29.8846 21.8224C29.9439 21.3779 29.9885 20.8742 30.0182 20.3112C30.0775 19.7187 30.1072 19.0816 30.1072 18.4001C30.1072 17.7187 30.0627 17.1112 29.9737 16.5779C29.9142 16.0149 29.8401 15.526 29.7511 15.1112C29.6323 14.6668 29.5285 14.2668 29.4394 13.9112C29.2316 13.8816 28.9793 13.852 28.6825 13.8224C28.445 13.7927 28.1631 13.7779 27.8366 13.7779C27.5101 13.7482 27.1836 13.7335 26.8571 13.7335ZM57.5179 11.5557V14.1335H53.5555V36.3112H57.5179V38.889H42.1134V36.3112H46.0758V14.1335H42.1134V11.5557H57.5179ZM87.9479 38.889H79.7559L71.5639 26.1779H71.2077V36.3112H74.2797V38.889H59.7656V36.3112H63.728V14.1335H59.7656V11.5557H71.2077V23.4668L79.6223 14.1335H76.2387V11.5557H87.6807V14.1335H83.184L76.862 21.1557L87.9479 37.9557V38.889ZM112.532 11.5557V20.6224C111.049 20.6224 109.817 20.3854 108.838 19.9112C107.888 19.4371 107.101 18.8594 106.478 18.1779C105.884 17.4965 105.439 16.7854 105.142 16.0446C104.846 15.3038 104.638 14.6668 104.519 14.1335H100.512V24.0001H108.303V26.5779H100.512V36.3112H105.187C105.306 35.7779 105.513 35.1409 105.81 34.4001C106.107 33.6594 106.552 32.9482 107.146 32.2668C107.739 31.5854 108.526 31.0076 109.505 30.5335C110.485 30.0298 111.717 29.7779 113.2 29.7779V38.889H89.0699V36.3112H93.0324V14.1335H89.0699V11.5557H112.532Z" fill="#0E1010"/>
<path d="M28.0636 47.1109V55.5109C26.6092 55.5109 25.4368 55.3035 24.5464 54.8887C23.6855 54.4442 23.0029 53.9257 22.4984 53.3331C22.0234 52.7406 21.697 52.1183 21.5189 51.4665C21.3408 50.785 21.2368 50.1924 21.2072 49.6887H18.714V71.8665H22.6765V74.4442H7.2719V71.8665H11.2344V49.6887H8.69659C8.66691 50.1924 8.56303 50.785 8.38494 51.4665C8.23654 52.1183 7.91004 52.7406 7.40546 53.3331C6.93056 53.9257 6.2479 54.4442 5.35746 54.8887C4.46703 55.3035 3.30946 55.5109 1.88477 55.5109V47.1109H28.0636ZM34.7063 71.8665V49.6887H30.7439V47.1109H40.9839C41.5182 47.1109 42.0969 47.0961 42.7203 47.0665C43.3733 47.0368 43.774 47.022 43.9223 47.022C47.7809 47.022 50.6154 47.6442 52.426 48.8887C54.2366 50.1331 55.1418 52.0146 55.1418 54.5331C55.1418 56.2812 54.7114 57.6739 53.8507 58.7109C53.0196 59.7184 51.966 60.4739 50.6896 60.9776L58.4809 73.5109V74.4442H50.2889L42.9429 61.9998H42.186V71.8665H45.258V74.4442H30.7439V71.8665H34.7063ZM43.9223 49.2887C43.299 49.2887 42.7203 49.3331 42.186 49.422V59.9998H46.7717C46.8311 59.4665 46.8905 58.9035 46.9498 58.3109C47.0091 57.8072 47.0537 57.2442 47.0834 56.622C47.1427 55.9701 47.1724 55.3035 47.1724 54.622C47.1724 53.9406 47.1279 53.2887 47.0389 52.6665C46.9795 52.0442 46.9053 51.4961 46.8163 51.022C46.6975 50.4887 46.5936 49.9701 46.5046 49.4665C46.2968 49.4368 46.0446 49.4072 45.7477 49.3776C45.5103 49.3479 45.2283 49.3331 44.9018 49.3331C44.5754 49.3035 44.2488 49.2887 43.9223 49.2887ZM60.233 71.8665L68.6031 47.8665L74.3019 46.8442L84.3193 73.5109V74.4442H76.2163L73.0553 65.6887H65.1304L62.9933 71.8665H67.8017V74.4442H57.25V71.8665H60.233ZM66.0208 63.1109H72.1203L69.0483 54.5331L66.0208 63.1109ZM101.279 47.1109V49.6887H97.3164V71.8665H101.279V74.4442H85.8743V71.8665H89.8367V49.6887H85.8743V47.1109H101.279ZM103.526 74.4442V71.8665H107.489V49.6887H103.526V47.1109H118.931V49.6887H114.969V71.8665H118.709C118.768 71.3331 118.916 70.6665 119.154 69.8665C119.391 69.0665 119.792 68.2961 120.356 67.5553C120.919 66.8146 121.676 66.1923 122.627 65.6887C123.576 65.1553 124.808 64.8887 126.322 64.8887V74.4442H103.526Z" fill="#0E1010"/>
<path d="M21.393 85.5553L25.5178 78.8887L29.6426 85.5553L28.464 86.6664L30.8211 90.5553L29.0533 91.1109L31.9996 96.6664L26.6963 97.222L26.1071 99.9998H25.5178L24.9286 97.7776L17.8574 98.8887L17.2682 101.111H16.6789L15.5004 98.8887H11.9648L14.3218 93.8887H13.1433L15.5004 90.5553H13.7326L16.6789 86.1109L19.0359 90.5553H17.8574L20.2145 93.8887H19.0359L19.6253 95.5553L20.8037 93.8887L22.5715 90.5553H20.2145L22.5715 86.6664L21.393 85.5553Z" fill="#0E1010"/>
<path d="M35.8961 85.5553L39.7918 78.8887L43.1309 85.5553H41.4613L43.6874 89.9998H42.0179L44.8005 94.4442H40.3483L39.7918 97.222H38.6787L38.1222 94.4442H34.2266L37.0092 89.9998H35.3396L38.1222 85.5553H35.8961Z" fill="#0E1010"/>
<path d="M53.0662 94.4667C53.1145 94.4535 53.148 94.4096 53.148 94.3596V92.8391C53.148 92.8008 53.1282 92.7652 53.0957 92.7449L48.7482 90.0325C48.7157 90.0121 48.6959 89.9766 48.6959 89.9382V87.2814C48.6959 87.2443 48.7144 87.2097 48.7454 87.189L52.0233 85.0076C52.0311 85.0025 52.0394 84.9982 52.0482 84.9951L63.1552 81.1144C63.162 81.1121 63.169 81.1103 63.1762 81.1093L74.8524 79.4442L81.5306 78.8887H92.6611L103.235 79.4442L111.571 80.5537C111.578 80.5548 111.587 80.5568 111.595 80.5598L115.599 82.0589C115.709 82.0999 115.689 82.2605 115.572 82.2733L111.026 82.7776H104.348L98.7908 83.3323C98.7855 83.3329 98.7801 83.3338 98.7749 83.3351L89.9084 85.5479C89.8888 85.5528 89.8709 85.5629 89.8566 85.5771L87.7091 87.7209C87.6752 87.7548 87.6668 87.8064 87.6882 87.8492L88.7476 89.9641C88.7591 89.9872 88.7783 90.0056 88.8019 90.016L93.7741 92.222L99.3181 94.4358C99.3321 94.4413 99.3448 94.4497 99.3555 94.4603L100.99 96.0923C101.003 96.1046 101.012 96.1194 101.017 96.1358L101.554 97.7424C101.561 97.7652 101.561 97.7899 101.554 97.8127L101.014 99.4301C101.01 99.4394 101.006 99.4483 101.001 99.4566L99.8958 101.111L97.6803 104.428C97.6733 104.439 97.6646 104.448 97.6545 104.456L95.4517 106.105C95.4463 106.109 95.4407 106.112 95.4347 106.115L91.0037 108.327C90.9956 108.331 90.987 108.334 90.9781 108.336L85.9828 109.444L82.0949 109.999C82.0898 109.999 82.0845 110 82.0792 110H76.5219H72.0698H63.144C63.0233 110 62.989 109.835 63.0996 109.787L75.3989 104.449C75.4056 104.446 75.4119 104.442 75.4179 104.438L82.6151 99.464C82.6337 99.4511 82.6479 99.4329 82.6559 99.4117L83.4628 97.2638C83.4729 97.237 83.4721 97.2073 83.4609 97.181L82.6521 95.2943C82.6466 95.2812 82.6386 95.2694 82.6284 95.2593L80.7072 93.3443C80.6996 93.3369 80.6912 93.3306 80.6818 93.3255L77.6437 91.6712C77.6379 91.668 77.6319 91.6654 77.6256 91.6633L74.3396 90.5699C74.3115 90.5606 74.2884 90.5406 74.2753 90.5142L73.2117 88.3908C73.1938 88.3551 73.1965 88.3127 73.2186 88.2794L74.2853 86.6823C74.2923 86.6718 74.301 86.6626 74.3111 86.655L76.5108 85.0081C76.5181 85.0026 76.5263 84.998 76.5347 84.9945L83.1834 82.229C83.1945 82.2243 83.2063 82.2216 83.2183 82.2207L90.9915 81.6664L95.2178 81.1391C95.3098 81.1276 95.3483 81.0157 95.2827 80.9502L94.9217 80.5898C94.8997 80.5679 94.8695 80.5561 94.8384 80.5573L81.5405 81.1105C81.534 81.1108 81.5274 81.1116 81.521 81.113L76.5219 82.222L69.3074 84.438C69.2941 84.4421 69.2816 84.4487 69.2706 84.4575L66.5463 86.6331C66.5199 86.6542 66.5045 86.6861 66.5045 86.7199V89.3863C66.5045 89.4227 66.5222 89.4566 66.5521 89.4774L72.0504 93.3196C72.0632 93.3284 72.0739 93.34 72.082 93.3535L73.7109 96.0637C73.7289 96.0934 73.7318 96.1298 73.7188 96.1621L72.6448 98.8426C72.633 98.8719 72.6093 98.8949 72.5794 98.9057L42.046 109.989C42.0274 109.996 42.0074 109.998 41.9879 109.994L15.226 105.087C15.1097 105.066 15.1025 104.902 15.2165 104.871L53.0662 94.4667Z" fill="#0E1010"/>
</svg>
