<svg width="40" height="40" viewBox="0 0 40 40" fill="none" xmlns="http://www.w3.org/2000/svg">
<path d="M30.0007 33.333C30.0007 30.6808 28.9471 28.1373 27.0717 26.2619C25.1964 24.3866 22.6528 23.333 20.0007 23.333M20.0007 23.333C17.3485 23.333 14.8049 24.3866 12.9296 26.2619C11.0542 28.1373 10.0007 30.6808 10.0007 33.333M20.0007 23.333C23.6825 23.333 26.6673 20.3482 26.6673 16.6663C26.6673 12.9844 23.6825 9.99967 20.0007 9.99967C16.3188 9.99967 13.334 12.9844 13.334 16.6663C13.334 20.3482 16.3188 23.333 20.0007 23.333ZM36.6673 19.9997C36.6673 29.2044 29.2054 36.6663 20.0007 36.6663C10.7959 36.6663 3.33398 29.2044 3.33398 19.9997C3.33398 10.7949 10.7959 3.33301 20.0007 3.33301C29.2054 3.33301 36.6673 10.7949 36.6673 19.9997Z" stroke="black" stroke-width="3" stroke-linecap="round" stroke-linejoin="round"/>
</svg>
